<?xml version="1.0" encoding="UTF-8" standalone="no"?><svg xmlns="http://www.w3.org/2000/svg" xmlns:xlink="http://www.w3.org/1999/xlink" data-name="Layer 1" fill="#000000" height="2970.9" preserveAspectRatio="xMidYMid meet" version="1" viewBox="-2.5 0.0 2966.7 2970.9" width="2966.7" zoomAndPan="magnify"><g id="change1_1"><path d="M1571.34 2253.29L2127.71 1057.42 1218.47 1697.89 1571.34 2253.29z" fill="#3c1f50"/></g><g id="change1_2"><path d="M621.6,1398.18c144.99,52.15,294.71,106.02,441.68,160.23,8.19,3.02,10.92,2.69,11.03,2.68,.12-.02,2.98-.46,10.44-5.73,243.12-171.87,489.97-345.45,732.11-515.54l-1195.27,358.37Z" fill="#3c1f50"/></g><g id="change1_3"><path d="M1138.94 2066.18L1195.38 2018.31 1151.59 1949.49 1138.94 2066.18z" fill="#3c1f50"/></g><g id="change1_4"><path d="M1481.47,0c-1.28,0-2.59,0-3.86,0C1092.16,0,712.43,159.35,435.16,437.58,152.04,721.7-2.49,1100.34,.03,1503.77c5.06,809.41,671.53,1467.16,1486.06,1467.16,.7,0,1.36,0,2.06,0,392.8-.54,762.99-155.37,1042.39-435.97,280.07-281.28,433.67-653.39,432.51-1047.77C2960.65,669.4,2296.01,2.25,1481.47,0Zm958.28,834.48c-121.11,262.04-245.08,528.02-364.96,785.25-45.31,97.22-92.16,197.74-138.19,296.63-30.6,65.73-61.6,132.64-91.58,197.35-54.8,118.26-111.46,240.55-167.94,360.57-5.42,11.52-35.17,69.13-88.44,71.61-1.2,.06-2.39,.08-3.57,.08-50.19,0-84.98-49.39-91.57-59.5-50.88-78.06-101.49-157.91-150.44-235.14-14.1-22.24-28.57-45.08-43-67.78-3.28,2.79-8.35,7.09-14.53,12.33-138.09,117.03-159.55,129.96-176.62,138.74-40.26,20.7-95.23,48.97-130.72,26.55-7.73-4.88-27.04-20.07-32.68-134.81-1.35-27.37-3.51-92.92,10.49-231.49,2.49-24.61,6.68-59.93,14.97-130.59,5.04-42.96,10.14-85.39,15.31-127.46-157.38-55.78-316.86-113.49-471.12-169.3-70.65-25.57-143.71-52-215.59-77.89-17.12-6.17-35.16-13.3-50.92-26.54-27.73-23.3-38.12-58.21-27.79-93.39,11.51-39.17,51.43-69.97,84.91-80.15,474.53-144.22,940.92-284.3,1334.55-402.31,247.26-74.13,467.92-139.33,674.59-199.34,15.5-4.5,34.62-6.45,52.46-5.34,40.59,2.51,60.48,20.53,70.01,35.21,22.6,34.79,17.06,84.88,2.36,116.7Z" fill="#3c1f50"/></g><g id="change2_1"><path d="M2367.39,682.59c-17.84-1.11-36.97,.84-52.46,5.34-206.67,60.01-427.32,125.21-674.59,199.34-393.64,118.01-860.02,258.09-1334.55,402.31-33.48,10.18-73.4,40.98-84.91,80.15-10.34,35.17,.05,70.08,27.79,93.39,15.75,13.24,33.79,20.37,50.92,26.54,71.87,25.89,144.93,52.33,215.59,77.89,154.27,55.82,313.75,113.52,471.12,169.3-5.17,42.07-10.27,84.5-15.31,127.46-8.29,70.65-12.48,105.98-14.97,130.59-14,138.57-11.83,204.13-10.49,231.49,5.64,114.74,24.95,129.92,32.68,134.81,35.49,22.42,90.47-5.85,130.72-26.55,17.07-8.78,38.53-21.71,176.62-138.74,6.18-5.24,11.25-9.54,14.53-12.33,14.43,22.71,28.9,45.54,43,67.78,48.95,77.23,99.56,157.08,150.44,235.14,6.59,10.11,41.37,59.5,91.57,59.5,1.18,0,2.37-.03,3.57-.08,53.27-2.48,83.01-60.09,88.44-71.61,56.48-120.02,113.14-242.31,167.94-360.57,29.98-64.71,60.99-131.62,91.58-197.35,46.03-98.89,92.88-199.41,138.19-296.63,119.88-257.23,243.85-523.22,364.96-785.25,14.71-31.82,20.24-81.91-2.36-116.7-9.53-14.67-29.42-32.69-70.01-35.21Zm-1282.64,872.77c-7.46,5.27-10.32,5.72-10.44,5.73-.11,.02-2.84,.34-11.03-2.68-146.98-54.21-296.7-108.08-441.68-160.23l1195.27-358.37c-242.14,170.09-488.99,343.67-732.11,515.54Zm54.19,510.83l12.65-116.69,43.79,68.83-56.44,47.87Zm432.4,187.11l-352.87-555.39,909.24-640.48-556.37,1195.87Z" fill="#f1f2f2"/></g></svg>